<?xml version="1.0" standalone="no"?>
<!DOCTYPE svg PUBLIC "-//W3C//DTD SVG 20010904//EN"
 "http://www.w3.org/TR/2001/REC-SVG-20010904/DTD/svg10.dtd">
<svg version="1.0" xmlns="http://www.w3.org/2000/svg"
 width="100.000000pt" height="100.000000pt" viewBox="0 0 100.000000 100.000000"
 preserveAspectRatio="xMidYMid meet">

<g transform="translate(0.000000,100.000000) scale(0.100000,-0.100000)"
fill="#000000" stroke="none">
<path d="M485 988 c-43 -23 -46 -37 -39 -159 l7 -116 -31 5 c-23 3 -37 -2 -55
-20 -19 -19 -32 -23 -60 -20 -50 6 -87 -31 -87 -88 0 -22 -8 -53 -17 -67 -15
-22 -19 -56 -21 -192 -4 -175 3 -219 40 -266 42 -54 86 -65 266 -65 180 0 211
7 254 58 21 26 28 50 43 165 16 118 17 143 5 192 -11 46 -11 97 -1 290 8 159
9 241 2 253 -14 26 -65 46 -96 38 -44 -11 -53 -40 -61 -196 -9 -158 -15 -146
-29 54 -6 85 -10 102 -31 123 -25 25 -57 29 -89 11z m63 -40 c5 -7 15 -79 22
-160 12 -142 12 -148 -9 -190 -23 -48 -22 -57 18 -156 30 -75 28 -83 -26 -112
-55 -29 -101 -95 -105 -150 -4 -53 22 -45 43 14 21 58 42 82 94 108 22 12 43
26 47 32 14 21 8 62 -22 140 -28 73 -29 80 -15 102 30 47 49 32 118 -98 27
-49 47 -99 47 -117 0 -44 -29 -242 -39 -267 -18 -43 -67 -54 -233 -54 -173 0
-205 9 -245 69 -21 32 -23 44 -22 180 0 80 3 140 6 133 9 -22 63 -44 94 -37
18 4 29 2 29 -4 0 -18 60 -43 86 -37 14 4 33 15 44 26 18 18 20 34 20 146 0
69 -5 190 -11 270 -8 111 -8 148 1 160 15 17 44 18 58 2z m202 -2 c9 -12 9
-57 1 -197 -6 -100 -11 -194 -11 -208 -1 -24 -3 -22 -22 14 -11 22 -28 49 -37
60 -16 18 -17 35 -9 170 5 82 14 155 20 162 14 17 43 16 58 -1z m-301 -280 c8
-9 11 -56 9 -141 -3 -109 -6 -129 -20 -139 -13 -8 -23 -8 -35 0 -15 10 -18 30
-21 139 -3 132 3 155 38 155 10 0 23 -6 29 -14z m-120 -40 c8 -9 11 -46 9
-101 -2 -71 -6 -90 -20 -99 -13 -8 -23 -8 -35 0 -15 9 -19 28 -21 99 -3 91 5
115 38 115 10 0 23 -6 29 -14z"/>
</g>
</svg>
