<?xml version="1.0" standalone="no"?>
<!DOCTYPE svg PUBLIC "-//W3C//DTD SVG 20010904//EN"
 "http://www.w3.org/TR/2001/REC-SVG-20010904/DTD/svg10.dtd">
<svg version="1.0" xmlns="http://www.w3.org/2000/svg"
 width="100.000000pt" height="100.000000pt" viewBox="0 0 100.000000 100.000000"
 preserveAspectRatio="xMidYMid meet">

<g transform="translate(0.000000,100.000000) scale(0.100000,-0.100000)"
fill="#000000" stroke="none">
<path d="M465 975 c-14 -13 -25 -33 -25 -44 0 -17 -5 -19 -34 -14 -28 4 -39 1
-60 -20 l-26 -26 0 -228 -1 -228 -44 50 c-39 45 -48 50 -85 50 -34 0 -47 -6
-66 -28 -38 -45 -31 -75 36 -164 250 -329 242 -323 417 -323 155 0 206 22 244
105 17 36 19 71 19 363 0 267 -3 328 -15 352 -16 32 -45 45 -79 36 -21 -5 -24
-1 -30 34 -8 48 -41 74 -87 68 -23 -4 -37 1 -55 19 -31 31 -77 30 -109 -2z
m83 -27 c8 -8 12 -67 12 -200 0 -181 1 -188 20 -188 19 0 20 8 22 171 3 151 5
173 21 183 12 8 22 8 35 0 15 -10 17 -33 20 -203 2 -182 3 -191 22 -191 18 0
20 9 22 141 3 122 5 143 21 153 12 8 22 8 35 0 15 -10 17 -39 20 -335 2 -357
1 -368 -61 -413 -25 -19 -43 -21 -162 -21 -128 0 -134 1 -160 25 -45 41 -275
341 -275 358 0 22 30 52 51 52 10 0 44 -30 75 -67 90 -107 88 -111 94 191 4
232 7 260 23 270 12 8 22 8 35 0 15 -10 17 -32 20 -173 2 -153 4 -161 22 -161
19 0 20 7 20 198 0 203 3 222 40 222 9 0 21 -5 28 -12z"/>
</g>
</svg>
