<?xml version="1.0" standalone="no"?>
<!DOCTYPE svg PUBLIC "-//W3C//DTD SVG 20010904//EN"
 "http://www.w3.org/TR/2001/REC-SVG-20010904/DTD/svg10.dtd">
<svg version="1.0" xmlns="http://www.w3.org/2000/svg"
 width="100.000000pt" height="100.000000pt" viewBox="0 0 100.000000 100.000000"
 preserveAspectRatio="xMidYMid meet">

<g transform="translate(0.000000,100.000000) scale(0.100000,-0.100000)"
fill="#000000" stroke="none">
<path d="M448 910 c-22 -14 -257 -335 -274 -377 -9 -21 -14 -75 -14 -158 0
-168 20 -217 105 -256 35 -16 68 -19 258 -19 175 0 224 3 247 15 36 18 52 47
48 84 -1 17 6 36 21 52 18 19 21 31 16 59 -7 44 -7 66 0 110 5 28 2 39 -14 54
-14 13 -21 31 -21 56 0 26 -7 43 -26 61 -24 22 -34 24 -169 29 l-143 5 39 90
c47 110 49 137 10 176 -31 30 -54 35 -83 19z m66 -61 c7 -20 -1 -47 -39 -137
-25 -61 -44 -116 -40 -122 4 -6 65 -10 159 -10 177 0 193 -5 183 -63 -5 -30
-2 -38 19 -52 30 -19 31 -44 3 -79 l-21 -27 21 -20 c28 -26 27 -45 -5 -74 -21
-20 -25 -29 -19 -55 5 -23 2 -37 -11 -51 -16 -18 -32 -19 -233 -19 -242 0
-266 5 -308 69 -21 31 -23 46 -23 157 0 67 5 135 10 150 11 27 159 237 227
322 39 48 63 51 77 11z"/>
</g>
</svg>
