<?xml version="1.0" standalone="no"?>
<!DOCTYPE svg PUBLIC "-//W3C//DTD SVG 20010904//EN"
 "http://www.w3.org/TR/2001/REC-SVG-20010904/DTD/svg10.dtd">
<svg version="1.0" xmlns="http://www.w3.org/2000/svg"
 width="100.000000pt" height="100.000000pt" viewBox="0 0 100.000000 100.000000"
 preserveAspectRatio="xMidYMid meet">

<g transform="translate(0.000000,100.000000) scale(0.100000,-0.100000)"
fill="#000000" stroke="none">
<path d="M165 915 l-25 -24 0 -331 c0 -275 3 -337 15 -367 40 -95 84 -112 283
-113 131 0 158 3 191 19 20 11 42 25 48 33 29 35 215 387 220 415 5 26 0 38
-25 63 -48 47 -81 42 -153 -27 l-59 -56 0 92 c0 85 -2 94 -26 117 -21 22 -31
25 -62 20 -47 -8 -60 -8 -98 0 -19 3 -41 1 -55 -7 -13 -8 -45 -14 -71 -14
l-48 0 0 78 c0 69 -3 81 -25 102 -15 16 -36 25 -55 25 -19 0 -40 -9 -55 -25z
m83 -27 c9 -9 12 -71 12 -215 l0 -204 26 -25 c21 -22 31 -25 62 -20 20 4 45 6
55 6 22 -1 92 -1 115 0 9 0 34 -2 55 -6 37 -6 40 -4 132 86 81 80 97 92 119
86 52 -13 44 -41 -67 -242 -134 -244 -121 -234 -321 -234 -169 0 -197 9 -236
72 -19 31 -20 51 -20 359 0 335 2 349 40 349 9 0 21 -5 28 -12z m241 -182 c8
-9 11 -51 9 -121 -3 -90 -6 -110 -20 -119 -13 -8 -23 -8 -35 0 -15 9 -18 29
-21 119 -3 111 4 135 38 135 10 0 23 -6 29 -14z m120 0 c8 -9 11 -51 9 -121
-3 -90 -6 -110 -20 -119 -13 -8 -23 -8 -35 0 -15 9 -18 29 -21 119 -3 111 4
135 38 135 10 0 23 -6 29 -14z m-240 -20 c8 -9 11 -48 9 -111 -2 -80 -6 -100
-20 -109 -13 -8 -23 -8 -35 0 -15 9 -19 29 -21 109 -3 101 4 125 38 125 10 0
23 -6 29 -14z"/>
</g>
</svg>
