<?xml version="1.0" standalone="no"?>
<!DOCTYPE svg PUBLIC "-//W3C//DTD SVG 20010904//EN"
 "http://www.w3.org/TR/2001/REC-SVG-20010904/DTD/svg10.dtd">
<svg version="1.0" xmlns="http://www.w3.org/2000/svg"
 width="50.000000pt" height="50.000000pt" viewBox="0 0 50.000000 50.000000"
 preserveAspectRatio="xMidYMid meet">
<metadata>
Created by potrace 1.16, written by Peter Selinger 2001-2019
</metadata>
<g transform="translate(0.000000,50.000000) scale(0.100000,-0.100000)"
fill="#000000" stroke="none">
<path d="M142 488 c-8 -8 -12 -57 -12 -157 0 -139 -1 -144 -18 -128 -22 20
-73 22 -90 5 -7 -7 -12 -26 -12 -43 0 -24 12 -43 57 -87 32 -31 71 -62 86 -67
16 -6 75 -11 133 -11 175 0 184 13 184 273 0 196 -3 207 -50 207 -37 0 -50
-18 -50 -71 0 -46 -1 -47 -35 -51 -19 -2 -51 -2 -70 0 l-35 4 0 57 c0 63 -11
81 -50 81 -14 0 -31 -5 -38 -12z m62 -34 c3 -9 6 -69 6 -134 0 -82 4 -121 13
-128 16 -13 138 -13 155 0 8 7 12 44 12 118 0 121 4 140 30 140 27 0 30 -19
29 -173 0 -223 -20 -252 -167 -252 -100 0 -132 13 -199 78 -66 64 -49 116 20
63 19 -14 37 -26 40 -26 4 0 7 67 7 149 0 162 3 181 30 181 10 0 21 -7 24 -16z"/>
</g>
</svg>
